<?xml version="1.0" encoding="UTF-8"?>
<svg id="Layer_2" data-name="Layer 2" xmlns="http://www.w3.org/2000/svg" xmlns:xlink="http://www.w3.org/1999/xlink" viewBox="0 0 838.66 231.6">
  <defs>
    <style>
      .cls-1 {
        fill: url(#linear-gradient);
      }

      .cls-1, .cls-2, .cls-3, .cls-4, .cls-5, .cls-6 {
        stroke-width: 0px;
      }

      .cls-2 {
        fill: url(#linear-gradient-2);
      }

      .cls-3 {
        fill: url(#linear-gradient-3);
      }

      .cls-4 {
        fill: #ecb71e;
      }

      .cls-5 {
        fill: #2f2e81;
      }

      .cls-6 {
        fill: url(#linear-gradient-4);
      }
    </style>
    <linearGradient id="linear-gradient" x1="127.89" y1="183.52" x2="182.59" y2="183.52" gradientUnits="userSpaceOnUse">
      <stop offset="0" stop-color="#2f2e81"/>
      <stop offset="1" stop-color="#393f99"/>
    </linearGradient>
    <linearGradient id="linear-gradient-2" x1="73.18" x2="127.89" xlink:href="#linear-gradient"/>
    <linearGradient id="linear-gradient-3" x1="0" y1="104.93" x2="127.89" y2="104.93" xlink:href="#linear-gradient"/>
    <linearGradient id="linear-gradient-4" y1="104.93" x2="255.77" y2="104.93" xlink:href="#linear-gradient"/>
  </defs>
  <g id="Layer_1-2" data-name="Layer 1">
    <g>
      <g>
        <g>
          <path class="cls-5" d="M310.59,96.56v25.7c0,4.86,3.2,7.92,7.36,7.92h6.39v10.14c-1.39.97-4.86,1.81-8.06,1.81-10.14,0-18.89-8.06-18.89-18.34v-27.23h-9.17v-11.11h9.17v-22.79h13.2v22.79h14.03v11.11h-14.03Z"/>
          <path class="cls-5" d="M392.42,115.32h-45.57c.69,9.31,7.22,15.84,16.53,15.84,7.08,0,12.64-3.75,15-9.59h13.2c-3.2,12.09-13.89,20.56-28.2,20.56-17.23,0-29.87-12.23-29.87-28.9s12.78-28.9,29.73-28.9,29.04,11.95,29.31,28.62l-.14,2.36ZM347.97,105.87h30.15c-2.36-6.39-7.5-10.42-14.73-10.42s-12.92,4.17-15.42,10.42Z"/>
          <path class="cls-5" d="M402.7,113.24c0-16.25,12.64-28.9,29.87-28.9,14.73,0,25.84,9.03,28.9,21.81h-13.75c-2.64-5.7-8.34-9.59-15.14-9.59-9.31,0-16.67,7.22-16.67,16.67s7.36,16.67,16.67,16.67c6.81,0,12.5-3.89,15.14-9.59h13.75c-3.06,12.78-14.17,21.81-28.9,21.81-17.23,0-29.87-12.64-29.87-28.9Z"/>
          <path class="cls-5" d="M521.35,105.73v35.29h-13.2v-34.04c0-5.83-4.58-10.42-10.42-10.42s-10.7,5-10.7,10.98v33.48h-13.2V42.1h13.2v47.38c3.75-3.2,8.47-5.14,13.62-5.14,11.53,0,20.7,9.31,20.7,21.4Z"/>
          <path class="cls-4" d="M568.86,96.56h-14.03v44.46h-13.2v-44.46h-9.31v-11.11h9.31v-25.15c0-10.14,8.61-18.2,18.89-18.2,3.2,0,6.67.69,8.06,1.67v10.28h-6.53c-4.03,0-7.22,3.06-7.22,7.92v23.48h14.03v11.11Z"/>
          <path class="cls-4" d="M577.06,120.46v-35.01h13.06v33.34c0,6.81,4.31,11.12,10.28,11.12s10.28-4.31,10.28-11.12v-33.34h13.06v35.01c0,13.34-8.75,21.67-23.34,21.67s-23.34-8.34-23.34-21.67Z"/>
          <path class="cls-4" d="M634.99,129.35l10.7-4.86c1.67,4.31,6.11,6.25,10.14,6.25s6.95-1.94,6.95-5.42c0-3.2-2.64-4.72-8.47-7.09-8.34-3.06-16.53-7.22-16.53-17.09s7.78-16.81,18.2-16.81c7.5,0,14.59,3.75,17.5,8.47l-8.33,6.81c-1.53-2.5-4.72-4.17-8.34-4.17s-5.97,1.81-5.97,5c0,3.47,2.64,4.58,8.06,6.81,7.5,3.06,16.39,7.22,16.39,17.78,0,10-7.92,17.09-19.03,17.09-9.31,0-18.62-5.14-21.26-12.78Z"/>
          <path class="cls-4" d="M687.09,67.81c0-4.45,3.61-7.92,7.92-7.92s7.92,3.47,7.92,7.92c0,4.17-3.61,7.78-7.92,7.78s-7.92-3.61-7.92-7.78ZM688.48,85.45h13.06v55.57h-13.06v-55.57Z"/>
          <path class="cls-4" d="M716.68,113.24c0-16.25,12.64-28.9,29.87-28.9s29.87,12.64,29.87,28.9-12.64,28.9-29.87,28.9-29.87-12.64-29.87-28.9ZM763.22,113.24c0-9.31-7.36-16.67-16.67-16.67s-16.67,7.36-16.67,16.67,7.22,16.67,16.67,16.67,16.67-7.36,16.67-16.67Z"/>
          <path class="cls-4" d="M838.66,105.73v35.29h-13.06v-33.9c0-5.97-4.58-10.56-10.7-10.56s-10.84,4.58-10.84,10.56v33.9h-13.2v-55.57h13.2v5.28c3.75-4.03,8.75-6.39,14.31-6.39,10.84,0,20.28,9.31,20.28,21.4Z"/>
        </g>
        <g>
          <path class="cls-5" d="M324.48,205.01h-22.31l-4.09,11.7h-5.85l18.13-50.13h5.93l18.13,50.13h-5.85l-4.09-11.7ZM322.72,199.91l-9.36-26.99-9.44,26.99h18.8Z"/>
          <path class="cls-5" d="M350.55,191.64c0-14.2,11.53-25.74,25.74-25.74,9.61,0,17.96,5.26,22.39,13.04l-4.6,2.59c-3.43-6.18-10.11-10.28-17.8-10.28-11.28,0-20.39,9.02-20.39,20.39s9.11,20.39,20.39,20.39c7.69,0,14.37-4.09,17.8-10.28l4.6,2.59c-4.43,7.77-12.78,13.04-22.39,13.04-14.21,0-25.74-11.53-25.74-25.74Z"/>
          <path class="cls-5" d="M445.72,205.01h-22.31l-4.09,11.7h-5.85l18.13-50.13h5.93l18.13,50.13h-5.85l-4.09-11.7ZM443.96,199.91l-9.36-26.99-9.44,26.99h18.8Z"/>
          <path class="cls-5" d="M475.13,166.57h13.7c13.79,0,25.07,11.2,25.07,25.07s-11.28,25.07-25.07,25.07h-13.7v-50.13ZM488.75,211.36c11.11,0,19.8-8.44,19.8-19.72s-8.69-19.72-19.8-19.72h-8.36v39.44h8.36Z"/>
          <path class="cls-5" d="M543.23,171.75v17.3h19.22v5.18h-19.22v17.3h22.06v5.18h-27.41v-50.13h27.41v5.18h-22.06Z"/>
          <path class="cls-5" d="M639.57,166.57v50.13h-5.26v-39.44l-17.46,39.44h-4.43l-17.3-39.61v39.61h-5.35v-50.13h5.68l19.22,43.7,19.3-43.7h5.6Z"/>
          <path class="cls-5" d="M682.01,192.89v23.81h-5.35v-23.73l-17.55-26.4h6.68l13.54,20.81,13.54-20.81h6.6l-17.46,26.32Z"/>
        </g>
      </g>
      <g>
        <polygon class="cls-1" points="127.89 135.45 182.59 231.6 182.59 231.6 127.89 196.18 127.89 135.45"/>
        <polygon class="cls-2" points="127.89 135.45 73.18 231.6 73.18 231.6 127.89 196.18 127.89 135.45"/>
        <polygon class="cls-4" points="127.89 157.65 12.78 103.8 12.78 103.8 127.89 112.3 127.89 157.65"/>
        <polygon class="cls-3" points="127.89 157.65 0 52.2 0 52.2 127.89 91.05 127.89 157.65"/>
        <polygon class="cls-4" points="127.89 157.65 242.99 103.8 242.99 103.8 127.89 112.3 127.89 157.65"/>
        <polygon class="cls-6" points="127.89 157.65 255.77 52.2 255.77 52.2 127.89 91.05 127.89 157.65"/>
        <circle class="cls-5" cx="128.25" cy="58.13" r="19.57"/>
        <polygon class="cls-4" points="127.89 0 131.45 10.98 142.99 10.98 133.66 17.76 137.22 28.74 127.89 21.95 118.55 28.74 122.11 17.76 112.78 10.98 124.32 10.98 127.89 0"/>
        <polygon class="cls-4" points="93.79 18.14 96.68 27.02 106.02 27.02 98.46 32.51 101.35 41.39 93.79 35.9 86.24 41.39 89.12 32.51 81.57 27.02 90.91 27.02 93.79 18.14"/>
        <polygon class="cls-4" points="163.2 18.14 166.09 27.02 175.43 27.02 167.87 32.51 170.76 41.39 163.2 35.9 155.65 41.39 158.53 32.51 150.98 27.02 160.32 27.02 163.2 18.14"/>
        <polygon class="cls-4" points="186.55 45.63 188.52 51.69 194.89 51.69 189.74 55.43 191.71 61.49 186.55 57.75 181.4 61.49 183.37 55.43 178.21 51.69 184.59 51.69 186.55 45.63"/>
        <polygon class="cls-4" points="69.22 45.63 71.19 51.69 77.56 51.69 72.4 55.43 74.37 61.49 69.22 57.75 64.06 61.49 66.03 55.43 60.88 51.69 67.25 51.69 69.22 45.63"/>
      </g>
    </g>
  </g>
</svg>