<?xml version="1.0" encoding="UTF-8"?>
<svg id="Layer_2" data-name="Layer 2" xmlns="http://www.w3.org/2000/svg" xmlns:xlink="http://www.w3.org/1999/xlink" viewBox="0 0 255.77 231.6">
  <defs>
    <style>
      .cls-1 {
        fill: url(#linear-gradient);
      }

      .cls-1, .cls-2, .cls-3, .cls-4, .cls-5, .cls-6 {
        stroke-width: 0px;
      }

      .cls-2 {
        fill: url(#linear-gradient-2);
      }

      .cls-3 {
        fill: url(#linear-gradient-3);
      }

      .cls-4 {
        fill: #ecb71e;
      }

      .cls-5 {
        fill: #2f2e81;
      }

      .cls-6 {
        fill: url(#linear-gradient-4);
      }
    </style>
    <linearGradient id="linear-gradient" x1="127.89" y1="183.52" x2="182.59" y2="183.52" gradientUnits="userSpaceOnUse">
      <stop offset="0" stop-color="#2f2e81"/>
      <stop offset="1" stop-color="#393f99"/>
    </linearGradient>
    <linearGradient id="linear-gradient-2" x1="73.18" x2="127.89" xlink:href="#linear-gradient"/>
    <linearGradient id="linear-gradient-3" x1="0" y1="104.93" x2="127.89" y2="104.93" xlink:href="#linear-gradient"/>
    <linearGradient id="linear-gradient-4" y1="104.93" x2="255.77" y2="104.93" xlink:href="#linear-gradient"/>
  </defs>
  <g id="Layer_1-2" data-name="Layer 1">
    <g>
      <polygon class="cls-1" points="127.89 135.45 182.59 231.6 182.59 231.6 127.89 196.18 127.89 135.45"/>
      <polygon class="cls-2" points="127.89 135.45 73.18 231.6 73.18 231.6 127.89 196.18 127.89 135.45"/>
      <polygon class="cls-4" points="127.89 157.65 12.78 103.8 12.78 103.8 127.89 112.3 127.89 157.65"/>
      <polygon class="cls-3" points="127.89 157.65 0 52.2 0 52.2 127.89 91.05 127.89 157.65"/>
      <polygon class="cls-4" points="127.89 157.65 242.99 103.8 242.99 103.8 127.89 112.3 127.89 157.65"/>
      <polygon class="cls-6" points="127.89 157.65 255.77 52.2 255.77 52.2 127.89 91.05 127.89 157.65"/>
      <circle class="cls-5" cx="128.25" cy="58.13" r="19.57"/>
      <polygon class="cls-4" points="127.89 0 131.45 10.98 142.99 10.98 133.66 17.76 137.22 28.74 127.89 21.95 118.55 28.74 122.11 17.76 112.78 10.98 124.32 10.98 127.89 0"/>
      <polygon class="cls-4" points="93.79 18.14 96.68 27.02 106.02 27.02 98.46 32.51 101.35 41.39 93.79 35.9 86.24 41.39 89.12 32.51 81.57 27.02 90.91 27.02 93.79 18.14"/>
      <polygon class="cls-4" points="163.2 18.14 166.09 27.02 175.43 27.02 167.87 32.51 170.76 41.39 163.2 35.9 155.65 41.39 158.53 32.51 150.98 27.02 160.32 27.02 163.2 18.14"/>
      <polygon class="cls-4" points="186.55 45.63 188.52 51.69 194.89 51.69 189.74 55.43 191.71 61.49 186.55 57.75 181.4 61.49 183.37 55.43 178.21 51.69 184.59 51.69 186.55 45.63"/>
      <polygon class="cls-4" points="69.22 45.63 71.19 51.69 77.56 51.69 72.4 55.43 74.37 61.49 69.22 57.75 64.06 61.49 66.03 55.43 60.88 51.69 67.25 51.69 69.22 45.63"/>
    </g>
  </g>
</svg>